<?xml version="1.0" encoding="UTF-8"?>
<svg id="Layer_2" xmlns="http://www.w3.org/2000/svg" xmlns:xlink="http://www.w3.org/1999/xlink" version="1.1" viewBox="0 0 744.6 169.5">
  <!-- Generator: Adobe Illustrator 30.1.0, SVG Export Plug-In . SVG Version: 2.1.1 Build 136)  -->
  <defs>
    <style>
      .st0, .st1 {
        fill: none;
      }

      .st2 {
        opacity: .2;
      }

      .st2, .st3, .st1 {
        isolation: isolate;
      }

      .st2, .st4 {
        fill: #10274e;
      }

      .st5 {
        fill: url(#linear-gradient2);
      }

      .st6 {
        fill: url(#linear-gradient1);
      }

      .st7 {
        fill: url(#linear-gradient);
      }

      .st1 {
        mix-blend-mode: overlay;
        opacity: .5;
        stroke: #fff;
        stroke-miterlimit: 10;
        stroke-width: .6px;
      }

      .st8 {
        clip-path: url(#clippath);
      }
    </style>
    <linearGradient id="linear-gradient" x1="24.5" y1="-2008.6" x2="46.1" y2="-1912.4" gradientTransform="translate(0 -1903.4) scale(1 -1)" gradientUnits="userSpaceOnUse">
      <stop offset="0" stop-color="#337fdb"/>
      <stop offset="1" stop-color="#164dc1"/>
    </linearGradient>
    <linearGradient id="linear-gradient1" x1="4680.8" y1="-2008.6" x2="4702.4" y2="-1912.4" gradientTransform="translate(4855.6 -1903.4) rotate(-180)" gradientUnits="userSpaceOnUse">
      <stop offset="0" stop-color="#337fdb"/>
      <stop offset="1" stop-color="#164dc1"/>
    </linearGradient>
    <linearGradient id="linear-gradient2" x1="99.3" y1="-1909" x2="102.8" y2="-2005.8" gradientTransform="translate(0 -1903.4) scale(1 -1)" gradientUnits="userSpaceOnUse">
      <stop offset="0" stop-color="#4db0f4"/>
      <stop offset="1" stop-color="#164dc1"/>
    </linearGradient>
    <clipPath id="clippath">
      <path class="st0" d="M162.6,2.4h-30.5c-3.1,0-5.9,1.9-7.1,4.7l-25.8,62.5L73.3,7.1c-1.2-2.9-4-4.7-7.1-4.7h-30.5c-.3,0-.6,0-.9,0,2.4.3,4.4,1.7,5.6,3.8l36,86.9c3.8,9.2,12.8,15.2,22.8,15.2s19-6,22.8-15.2L157.9,6.2c1.2-2.1,3.3-3.5,5.6-3.8-.3,0-.6,0-.9,0h0Z"/>
    </clipPath>
  </defs>
  <g id="Layer_1-2">
    <g id="uuid-8e216439-c7a2-4f83-877e-4519fc76ce6d">
      <g>
        <g class="st3">
          <g id="Layer_2-2">
            <g id="uuid-24a945e3-8d09-4f75-911d-fc18fe635b67">
              <g id="Layer_1-3">
                <g id="Layer_11">
                  <g>
                    <path class="st7" d="M68.1,2.4l-28.9,110.2s-36.9.4-36.9,0L30.1,6.6c.7-2.5,2.9-4.2,5.5-4.2,0,0,32.5,0,32.5,0Z"/>
                    <path class="st6" d="M131.2,2.4l28.9,110.2s36.9.4,36.9,0L169.2,6.6c-.7-2.5-2.9-4.2-5.5-4.2h-32.5Z"/>
                    <path class="st5" d="M162.6,2.4h-30.5c-3.1,0-5.9,1.9-7.1,4.7l-25.8,62.5L73.3,7.1c-1.2-2.9-4-4.7-7.1-4.7h-30.5c-.3,0-.6,0-.9,0,2.4.3,4.4,1.7,5.6,3.8l36,86.9c3.8,9.2,12.8,15.2,22.8,15.2h0c10,0,19-6,22.8-15.2L157.9,6.2c1.2-2.1,3.3-3.5,5.6-3.8-.3,0-.6,0-.9,0h0Z"/>
                    <g class="st8">
                      <g>
                        <path class="st1" d="M88.7,108.9c11.8-4.1,15.4-25.6,38-28.4,20.5-2.5,20.6-4.1,20.6-4.1"/>
                        <path class="st1" d="M86.1,108.3c13.4-5.7,20.2-27.9,35.3-32.1,15.7-4.3,17.9-5.4,17.9-5.4"/>
                        <path class="st1" d="M84.1,107.1c12.9-5.3,21.6-30.3,37.3-34.8,14-4,19.5-8.4,19.5-8.4"/>
                        <path class="st1" d="M83.2,105.4c15.1-7.9,20-31,38.3-37.4s22.2-13.1,22.2-13.1"/>
                        <path class="st1" d="M81.8,103.2c12.7-3,19.7-32.4,37.2-39.1,17.5-6.7,23.2-11.8,27.9-19.3"/>
                        <path class="st1" d="M80.2,101.5c13.6-2.9,20-36.6,40.2-43.4,18.6-6.2,30.8-25.3,30.8-25.3"/>
                      </g>
                    </g>
                  </g>
                </g>
              </g>
              <g>
                <path class="st4" d="M28.3,146.9l-8.7,10.3h-1.7l-8.5-10.2v20.1H0v-33.9h10l8.9,11.5,8.9-11.5h10v33.9h-9.5v-20.2h0Z"/>
                <path class="st4" d="M48.8,167.1v-33.9h9.5v33.9h-9.5Z"/>
                <path class="st4" d="M99.5,162.7c-3.8,3.8-8.5,5.3-13.6,5.3-13.3,0-18.5-8.4-18.6-17.6,0-8.7,5.8-18,18.6-18s9.3,1.7,13.1,5.4l-5.9,5.8c-2.4-2.3-4.9-3-7.2-3-6.5,0-9.1,5.3-9.1,9.7s2.4,9.4,9.1,9.4,5.6-1,8-3.4l5.6,6.3h0Z"/>
                <path class="st4" d="M136.6,162.7c-3.8,3.8-8.5,5.3-13.6,5.3-13.3,0-18.5-8.4-18.6-17.6,0-8.7,5.8-18,18.6-18s9.3,1.7,13.1,5.4l-5.9,5.8c-2.4-2.3-4.9-3-7.2-3-6.5,0-9.1,5.3-9.1,9.7s2.4,9.4,9.1,9.4,5.6-1,8-3.4l5.6,6.3h0Z"/>
                <path class="st4" d="M168.9,161.5h-15.2l-2.2,5.6h-10.2l15.2-33.9h9.7l15.2,33.9h-10.3l-2.2-5.6h0ZM161.4,142.7l-4.4,10.8h8.7l-4.3-10.8Z"/>
                <path class="st4" d="M188.4,167.1v-33.9h9.5v33.9h-9.5Z"/>
              </g>
            </g>
          </g>
        </g>
        <g>
          <path class="st4" d="M292.9,51.2v1.5c0,.2-.1.4-.4.4h-4.8c-.1,0-.1,0-.1.2v22.6c0,.2-.1.4-.4.4h-1.9c-.2,0-.4-.1-.4-.4v-22.6c0,0,0-.2-.1-.2h-4.5c-.2,0-.4-.1-.4-.4v-1.5c0-.2.1-.4.4-.4h12.1c.2,0,.4.1.4.4h0Z"/>
          <path class="st4" d="M305.7,59.1c.8,1,1.2,2.4,1.2,4.2v12.5c0,.2-.1.4-.4.4h-1.9c-.2,0-.4-.1-.4-.4v-12.2c0-1.2-.3-2.1-.8-2.8s-1.2-1-2.2-1-1.7.3-2.3,1-.8,1.7-.8,2.9v12.1c0,.2-.1.4-.4.4h-1.9c-.2,0-.4-.1-.4-.4v-24.6c0-.2.1-.4.4-.4h1.9c.2,0,.4.1.4.4v8.2s0,0,0,.1,0,0,.1,0c.4-.6,1-1.1,1.6-1.4.7-.3,1.4-.5,2.1-.5,1.5,0,2.6.5,3.4,1.5h0Z"/>
          <path class="st4" d="M321,68h-8.2c-.1,0-.1,0-.1.2v2.6c0,1,.3,1.8.9,2.5s1.3,1,2.2,1,1.4-.2,2-.7.9-1.1,1.1-1.8c0-.2.2-.3.4-.3h1.8c.1,0,.2.1.2.2s.1.2,0,.3c-.2,1.4-.8,2.6-1.8,3.4s-2.2,1.2-3.8,1.2-3.1-.5-4.1-1.5c-1-1-1.5-2.3-1.5-4v-7.8c0-1.6.5-3,1.5-4s2.4-1.5,4.1-1.5,3.1.5,4.1,1.5c1,1,1.5,2.4,1.5,4v4.5c0,.2-.1.4-.4.4h0ZM313.4,60.8c-.6.6-.9,1.5-.9,2.5v2.4c0,0,0,.2.1.2h5.9c.1,0,.1,0,.1-.2v-2.4c0-1-.3-1.9-.9-2.5s-1.3-1-2.3-1-1.7.3-2.2,1h0Z"/>
          <path class="st4" d="M344.3,50.8h1.9c.2,0,.4.1.4.4v24.6c0,.2-.1.4-.4.4h-1.9c-.2,0-.4-.1-.4-.4v-19.4c0,0,0-.1,0-.1s0,0-.1,0l-3.8,7.8c0,.2-.2.2-.4.2s-.3,0-.4-.2l-3.8-7.8s0,0-.1,0,0,0,0,.1v19.4c0,.2-.1.4-.4.4h-1.9c-.2,0-.4-.1-.4-.4v-24.6c0-.2.1-.4.4-.4h1.9c.2,0,.4,0,.4.2l4.1,8.4s0,0,.1,0,0,0,.1,0l4.1-8.4c0-.2.2-.2.4-.2h0Z"/>
          <path class="st4" d="M360.9,68h-8.2c-.1,0-.1,0-.1.2v2.6c0,1,.3,1.8.9,2.5s1.3,1,2.2,1,1.4-.2,2-.7.9-1.1,1.1-1.8c0-.2.2-.3.4-.3h1.8c.1,0,.2.1.2.2s.1.2,0,.3c-.2,1.4-.8,2.6-1.8,3.4s-2.2,1.2-3.8,1.2-3.1-.5-4.1-1.5c-1-1-1.5-2.3-1.5-4v-7.8c0-1.6.5-3,1.5-4s2.4-1.5,4.1-1.5,3.1.5,4.1,1.5c1,1,1.5,2.4,1.5,4v4.5c0,.2-.1.4-.4.4h0ZM353.3,60.8c-.6.6-.9,1.5-.9,2.5v2.4c0,0,0,.2.1.2h5.9c.1,0,.1,0,.1-.2v-2.4c0-1-.3-1.9-.9-2.5s-1.3-1-2.3-1-1.7.3-2.2,1h0Z"/>
          <path class="st4" d="M373.1,50.8h1.9c.2,0,.4.1.4.4v24.6c0,.2-.1.4-.4.4h-1.9c-.2,0-.4-.1-.4-.4v-.8s0,0,0-.1,0,0-.1,0c-.9,1-2.1,1.5-3.5,1.5s-2.8-.5-3.7-1.5c-.9-1-1.4-2.4-1.4-4v-7.8c0-1.7.5-3,1.4-4,.9-1,2.1-1.5,3.7-1.5s2.6.5,3.5,1.6c0,0,0,0,.1,0s0,0,0-.1v-7.9c0-.2.1-.4.4-.4ZM371.9,73.2c.6-.6.9-1.5.9-2.5v-7.5c0-1-.3-1.9-.9-2.5s-1.3-1-2.2-1-1.7.3-2.3,1-.9,1.5-.9,2.5v7.5c0,1,.3,1.8.9,2.5.6.6,1.3,1,2.3,1s1.6-.3,2.2-1Z"/>
          <path class="st4" d="M379,53.9c-.4-.4-.6-.9-.6-1.5s.2-1.1.6-1.5c.4-.4.9-.6,1.5-.6s1.1.2,1.4.6c.4.4.6.9.6,1.5s-.2,1.1-.6,1.5c-.4.4-.9.6-1.4.6s-1.1-.2-1.5-.6ZM379.1,75.8v-17.6c0-.2.1-.4.4-.4h1.9c.2,0,.4.1.4.4v17.6c0,.2-.1.4-.4.4h-1.9c-.2,0-.4-.1-.4-.4Z"/>
          <path class="st4" d="M386.5,74.9c-1-1-1.5-2.3-1.5-4v-7.8c0-1.6.5-3,1.6-4s2.4-1.5,4.1-1.5,2.1.2,3,.7,1.5,1.1,2,1.8.7,1.6.7,2.5v.4c0,.2-.1.4-.4.4h-1.9c-.2,0-.4,0-.4-.3v-.2c0-.8-.3-1.5-.9-2.1s-1.3-.9-2.3-.9-1.7.3-2.2,1-.9,1.5-.9,2.5v7.5c0,1,.3,1.9.9,2.5s1.3,1,2.2,1,1.7-.3,2.3-.9.9-1.3.9-2.1v-.2c0-.2.1-.4.4-.4h1.9c.2,0,.4.2.4.4v.4c0,1.4-.5,2.7-1.6,3.6s-2.4,1.4-4.1,1.4-3.1-.5-4.1-1.5h0Z"/>
          <path class="st4" d="M409,59.2c1,1.1,1.5,2.6,1.5,4.4v12.2c0,.2-.1.4-.4.4h-1.9c-.2,0-.4-.1-.4-.4v-1.1s0,0,0,0c0,0,0,0-.1,0-.9,1.2-2.2,1.8-4,1.8s-2.5-.4-3.5-1.1-1.5-2.1-1.5-4,.6-3.6,1.8-4.5,2.7-1.4,4.7-1.4h2.5c.1,0,.1,0,.1-.2v-1.4c0-1.2-.3-2.2-.8-2.9-.5-.7-1.3-1.1-2.2-1.1s-1.3.2-1.9.7-.8,1.1-.9,1.8c0,.2-.1.4-.4.4h-2c-.1,0-.2,0-.3-.2s0-.2,0-.2c.1-1.4.7-2.6,1.7-3.5,1-.9,2.3-1.3,3.8-1.3s3,.5,4.1,1.7h0ZM406.9,73.2c.7-.6,1.1-1.5,1.1-2.7v-3c0,0,0-.2-.1-.2h-2.6c-1.2,0-2.1.3-2.8.9-.7.6-1,1.5-1,2.7s.3,1.8.8,2.4c.5.5,1.2.8,2,.8s1.9-.3,2.6-1h0Z"/>
          <path class="st4" d="M413.7,75.8v-24.6c0-.2.1-.4.4-.4h1.9c.2,0,.4.1.4.4v24.6c0,.2-.1.4-.4.4h-1.9c-.2,0-.4-.1-.4-.4h0Z"/>
          <path class="st4" d="M428.1,75.8v-24.6c0-.2.1-.4.4-.4h1.9c.2,0,.4.1.4.4v24.6c0,.2-.1.4-.4.4h-1.9c-.2,0-.4-.1-.4-.4h0Z"/>
          <path class="st4" d="M452.4,59.2c.8,1.1,1.2,2.5,1.2,4.4v12.2c0,.2-.1.4-.4.4h-1.8c-.2,0-.4-.1-.4-.4v-12c0-1.2-.3-2.2-.8-2.9s-1.2-1.1-2-1.1-1.6.3-2.2,1-.8,1.7-.8,2.9v12.1c0,.2-.1.4-.4.4h-1.9c-.2,0-.4-.1-.4-.4v-12c0-1.2-.3-2.2-.8-2.9s-1.2-1.1-2-1.1-1.6.3-2.2,1-.8,1.7-.8,2.9v12.1c0,.2-.1.4-.4.4h-1.8c-.2,0-.4-.1-.4-.4v-17.6c0-.2.1-.4.4-.4h1.8c.2,0,.4.1.4.4v1.1s0,0,0,0c0,0,0,0,.1,0,.5-.6,1-1,1.6-1.3s1.3-.4,2-.4,1.7.2,2.4.7c.7.5,1.2,1.1,1.6,1.9,0,0,0,0,.1,0s0,0,.1-.1c.4-.9,1-1.5,1.8-1.9s1.5-.6,2.4-.6c1.5,0,2.6.5,3.4,1.6h0Z"/>
          <path class="st4" d="M466.6,59.2c1,1.1,1.5,2.6,1.5,4.4v12.2c0,.2-.1.4-.4.4h-1.9c-.2,0-.4-.1-.4-.4v-1.1s0,0,0,0c0,0,0,0-.1,0-.9,1.2-2.2,1.8-4,1.8s-2.5-.4-3.5-1.1-1.5-2.1-1.5-4,.6-3.6,1.8-4.5,2.7-1.4,4.7-1.4h2.5c.1,0,.1,0,.1-.2v-1.4c0-1.2-.3-2.2-.8-2.9-.5-.7-1.3-1.1-2.2-1.1s-1.3.2-1.9.7-.8,1.1-.9,1.8c0,.2-.1.4-.4.4h-2c-.1,0-.2,0-.3-.2s0-.2,0-.2c.1-1.4.7-2.6,1.7-3.5,1-.9,2.3-1.3,3.8-1.3s3,.5,4.1,1.7h0ZM464.5,73.2c.7-.6,1.1-1.5,1.1-2.7v-3c0,0,0-.2-.1-.2h-2.6c-1.2,0-2.1.3-2.8.9-.7.6-1,1.5-1,2.7s.3,1.8.8,2.4c.5.5,1.2.8,2,.8s1.9-.3,2.6-1h0Z"/>
          <path class="st4" d="M480.2,57.8h1.9c.2,0,.4.1.4.4v17.6c0,2.6-.6,4.5-1.8,5.9s-3.2,1.9-6,1.8c-.2,0-.4-.2-.4-.4v-1.6c0-.2.1-.4.4-.4,1.9,0,3.3-.4,4.1-1.3.8-.9,1.2-2.4,1.2-4.3v-1.1s0,0,0-.1,0,0-.1,0c-.4.6-.9,1.1-1.6,1.4-.6.3-1.3.5-2,.5-1.5,0-2.7-.5-3.6-1.5-.9-1-1.3-2.3-1.3-4v-7.6c0-1.7.4-3,1.3-4s2.1-1.5,3.6-1.5,1.4.2,2,.5c.6.3,1.2.8,1.6,1.4,0,0,0,0,.1,0s0,0,0-.1v-1.1c0-.2.1-.4.4-.4h0ZM479,73.1c.6-.6.9-1.5.9-2.5v-7.3c0-1-.3-1.9-.9-2.5s-1.3-1-2.2-1-1.7.3-2.2,1-.9,1.5-.9,2.5v7.3c0,1,.3,1.8.9,2.5.6.6,1.3,1,2.2,1s1.6-.3,2.2-1h0Z"/>
          <path class="st4" d="M496.4,68h-8.2c-.1,0-.1,0-.1.2v2.6c0,1,.3,1.8.9,2.5s1.3,1,2.2,1,1.4-.2,2-.7.9-1.1,1.1-1.8c0-.2.2-.3.4-.3h1.8c.1,0,.2.1.2.2s.1.2,0,.3c-.2,1.4-.8,2.6-1.8,3.4s-2.2,1.2-3.8,1.2-3.1-.5-4.1-1.5c-1-1-1.5-2.3-1.5-4v-7.8c0-1.6.5-3,1.5-4s2.4-1.5,4.1-1.5,3.1.5,4.1,1.5c1,1,1.5,2.4,1.5,4v4.5c0,.2-.1.4-.4.4h0ZM488.8,60.8c-.6.6-.9,1.5-.9,2.5v2.4c0,0,0,.2.1.2h5.9c.1,0,.1,0,.1-.2v-2.4c0-1-.3-1.9-.9-2.5s-1.3-1-2.3-1-1.7.3-2.2,1h0Z"/>
          <path class="st4" d="M509.3,74.8c-1.1-1.1-1.7-2.7-1.7-4.6v-13.4c0-1.9.6-3.4,1.7-4.5,1.1-1.1,2.6-1.7,4.5-1.7s3.4.6,4.5,1.7,1.7,2.6,1.7,4.5v.6c0,.2-.1.4-.4.4h-1.9c-.2.1-.4,0-.4-.2v-.9c0-1.1-.3-2-1-2.8-.7-.7-1.5-1-2.6-1s-1.9.3-2.6,1-1,1.6-1,2.8v13.8c0,1.1.3,2.1,1,2.8.7.7,1.5,1.1,2.6,1.1s2-.3,2.6-1.1c.7-.7,1-1.6,1-2.8v-.9c0-.2.1-.4.4-.4h1.9c.2.1.4.2.4.5v.6c0,1.9-.6,3.4-1.7,4.6s-2.6,1.7-4.5,1.7-3.4-.6-4.5-1.7h0Z"/>
          <path class="st4" d="M524.5,74.9c-1-1-1.5-2.3-1.5-4v-7.8c0-1.6.5-3,1.6-4s2.4-1.6,4.1-1.6,3.1.5,4.2,1.6,1.6,2.4,1.6,4v7.8c0,1.7-.5,3-1.6,4s-2.4,1.5-4.2,1.5-3.1-.5-4.1-1.5h0ZM530.9,73.2c.6-.6.9-1.5.9-2.5v-7.5c0-1-.3-1.9-.9-2.5s-1.3-1-2.3-1-1.7.3-2.2,1-.9,1.5-.9,2.5v7.5c0,1,.3,1.9.9,2.5s1.3.9,2.2.9,1.7-.3,2.3-.9Z"/>
          <path class="st4" d="M555.5,59.2c.8,1.1,1.2,2.5,1.2,4.4v12.2c0,.2-.1.4-.4.4h-1.8c-.2,0-.4-.1-.4-.4v-12c0-1.2-.3-2.2-.8-2.9s-1.2-1.1-2-1.1-1.6.3-2.2,1-.8,1.7-.8,2.9v12.1c0,.2-.1.4-.4.4h-1.8c-.2,0-.4-.1-.4-.4v-12c0-1.2-.3-2.2-.8-2.9s-1.2-1.1-2-1.1-1.7.3-2.2,1-.8,1.7-.8,2.9v12.1c0,.2-.1.4-.4.4h-1.8c-.2,0-.4-.1-.4-.4v-17.6c0-.2.1-.4.4-.4h1.8c.2,0,.4.1.4.4v1.1s0,0,0,0c0,0,0,0,.1,0,.5-.6,1-1,1.6-1.3s1.3-.4,2-.4,1.7.2,2.4.7c.7.5,1.2,1.1,1.6,1.9,0,0,0,0,.1,0s0,0,.1-.1c.4-.9,1-1.5,1.8-1.9s1.5-.6,2.4-.6c1.5,0,2.6.5,3.4,1.6h0Z"/>
          <path class="st4" d="M570.1,59.1c.9,1,1.4,2.4,1.4,4v7.8c0,1.7-.5,3-1.4,4-.9,1-2.1,1.5-3.7,1.5s-1.3-.1-1.9-.4-1.1-.7-1.6-1.2c0,0,0,0-.1,0s0,0,0,.1v7.9c0,.2-.1.4-.4.4h-1.8c-.2,0-.4-.1-.4-.4v-24.6c0-.2.1-.4.4-.4h1.8c.2,0,.4.1.4.4v.8s0,0,0,0,0,0,.2,0c.4-.5,1-.9,1.6-1.1s1.2-.4,1.9-.4c1.5,0,2.7.5,3.7,1.5h0ZM568,60.8c-.6-.6-1.3-1-2.3-1s-1.6.3-2.2,1-.8,1.5-.8,2.5v7.5c0,1,.3,1.9.8,2.5.6.6,1.3,1,2.2,1s1.7-.3,2.3-1,.9-1.5.9-2.5v-7.5c0-1-.3-1.9-.9-2.5Z"/>
          <path class="st4" d="M583.5,57.8h1.8c.2,0,.4.1.4.4v17.6c0,.2-.1.4-.4.4h-1.8c-.2,0-.4-.1-.4-.4v-1.2c0,0,0-.1,0-.1s0,0-.1,0c-.8,1.3-2,1.9-3.6,1.9s-2.6-.4-3.5-1.3c-.9-.9-1.3-2.2-1.3-4v-12.9c0-.2.1-.4.4-.4h1.8c.2,0,.4.1.4.4v12.3c0,1.2.2,2.1.7,2.7s1.2.9,2.2.9,1.7-.3,2.3-1.1.8-1.7.8-2.9v-12.1c0-.2.1-.4.4-.4h0Z"/>
          <path class="st4" d="M595.7,59.8h-2.8c0,0-.2,0-.2.2v11.1c0,1.1.2,1.9.6,2.3.4.4,1,.6,1.8.6h.4c.2,0,.4.1.4.4v1.6c0,.2-.1.4-.4.4h-.9c-1.4,0-2.5-.3-3.2-.9s-1.1-1.8-1.1-3.5v-11.8c0,0,0-.2-.2-.2h-1.4c-.2,0-.4-.1-.4-.4v-1.2c0-.2.1-.4.4-.4h1.4c0,0,.2,0,.2-.2v-4.1c0-.2.1-.4.4-.4h1.8c.2,0,.4.1.4.4v4.1c0,0,0,.2.2.2h2.8c.2,0,.4.1.4.4v1.2c0,.2-.1.4-.4.4h0Z"/>
          <path class="st4" d="M598.7,53.9c-.4-.4-.6-.9-.6-1.5s.2-1.1.6-1.5c.4-.4.9-.6,1.5-.6s1.1.2,1.4.6c.4.4.6.9.6,1.5s-.2,1.1-.6,1.5c-.4.4-.8.6-1.4.6s-1.1-.2-1.5-.6ZM598.9,75.8v-17.6c0-.2.1-.4.4-.4h1.8c.2,0,.4.1.4.4v17.6c0,.2-.1.4-.4.4h-1.8c-.2,0-.4-.1-.4-.4Z"/>
          <path class="st4" d="M615,59.1c.8,1,1.2,2.4,1.2,4.2v12.5c0,.2-.1.4-.4.4h-1.8c-.2,0-.4-.1-.4-.4v-12.2c0-1.2-.3-2.1-.8-2.8s-1.2-1-2.2-1-1.7.3-2.3,1-.8,1.7-.8,2.9v12.1c0,.2-.1.4-.4.4h-1.8c-.2,0-.4-.1-.4-.4v-17.6c0-.2.1-.4.4-.4h1.8c.2,0,.4.1.4.4v1.2s0,0,0,.1,0,0,.1,0c.4-.6,1-1.1,1.7-1.4.7-.3,1.4-.5,2.1-.5,1.5,0,2.6.5,3.4,1.5h0Z"/>
          <path class="st4" d="M628.4,57.8h1.8c.2,0,.4.1.4.4v17.6c0,2.6-.6,4.5-1.8,5.9s-3.2,1.9-6,1.8c-.2,0-.4-.2-.4-.4v-1.6c0-.2.1-.4.4-.4,1.9,0,3.3-.4,4.1-1.3.8-.9,1.2-2.4,1.2-4.3v-1.1s0,0,0-.1c0,0,0,0-.1,0-.4.6-.9,1.1-1.6,1.4-.6.3-1.3.5-2,.5-1.5,0-2.7-.5-3.6-1.5-.9-1-1.3-2.3-1.3-4v-7.6c0-1.7.4-3,1.3-4s2.1-1.5,3.6-1.5,1.4.2,2,.5c.6.3,1.2.8,1.6,1.4,0,0,0,0,.1,0s0,0,0-.1v-1.1c0-.2.1-.4.4-.4h0ZM627.2,73.1c.6-.6.8-1.5.8-2.5v-7.3c0-1-.3-1.9-.8-2.5-.6-.6-1.3-1-2.2-1s-1.7.3-2.2,1-.9,1.5-.9,2.5v7.3c0,1,.3,1.8.9,2.5.6.6,1.3,1,2.2,1s1.6-.3,2.2-1h0Z"/>
          <path class="st4" d="M651.3,59.2c1,1.1,1.5,2.6,1.5,4.4v12.2c0,.2-.1.4-.4.4h-1.8c-.2,0-.4-.1-.4-.4v-1.1s0,0,0,0c0,0,0,0-.1,0-.9,1.2-2.2,1.8-4,1.8s-2.5-.4-3.5-1.1-1.5-2.1-1.5-4,.6-3.6,1.8-4.5,2.7-1.4,4.7-1.4h2.5c0,0,.2,0,.2-.2v-1.4c0-1.2-.3-2.2-.8-2.9-.5-.7-1.3-1.1-2.2-1.1s-1.3.2-1.9.7-.8,1.1-.9,1.8c0,.2-.1.4-.4.4h-2c-.1,0-.2,0-.3-.2s0-.2,0-.2c.1-1.4.7-2.6,1.7-3.5,1-.9,2.3-1.3,3.8-1.3s3,.5,4.1,1.7h0ZM649.2,73.2c.7-.6,1.1-1.5,1.1-2.7v-3c0,0,0-.2-.2-.2h-2.6c-1.2,0-2.1.3-2.8.9-.7.6-1,1.5-1,2.7s.3,1.8.8,2.4c.5.5,1.2.8,2,.8s1.8-.3,2.6-1h0Z"/>
          <path class="st4" d="M666,59.1c.8,1,1.2,2.4,1.2,4.2v12.5c0,.2-.1.4-.4.4h-1.8c-.2,0-.4-.1-.4-.4v-12.2c0-1.2-.3-2.1-.8-2.8s-1.2-1-2.2-1-1.7.3-2.3,1-.8,1.7-.8,2.9v12.1c0,.2-.1.4-.4.4h-1.8c-.2,0-.4-.1-.4-.4v-17.6c0-.2.1-.4.4-.4h1.8c.2,0,.4.1.4.4v1.2s0,0,0,.1,0,0,.1,0c.4-.6,1-1.1,1.7-1.4.7-.3,1.4-.5,2.1-.5,1.5,0,2.6.5,3.4,1.5h0Z"/>
          <path class="st4" d="M679.4,50.8h1.8c.2,0,.4.1.4.4v24.6c0,.2-.1.4-.4.4h-1.8c-.2,0-.4-.1-.4-.4v-.8s0,0,0-.1c0,0,0,0-.1,0-.9,1-2.1,1.5-3.5,1.5s-2.8-.5-3.7-1.5c-.9-1-1.4-2.4-1.4-4v-7.8c0-1.7.5-3,1.4-4,.9-1,2.2-1.5,3.7-1.5s2.6.5,3.5,1.6c0,0,0,0,.1,0s0,0,0-.1v-7.9c0-.2.1-.4.4-.4ZM678.2,73.2c.6-.6.8-1.5.8-2.5v-7.5c0-1-.3-1.9-.8-2.5-.6-.6-1.3-1-2.2-1s-1.7.3-2.3,1-.9,1.5-.9,2.5v7.5c0,1,.3,1.8.9,2.5.6.6,1.3,1,2.3,1s1.6-.3,2.2-1Z"/>
          <path class="st4" d="M282.5,118.2c-1.1-1.1-1.7-2.7-1.7-4.6v-13.4c0-1.9.6-3.4,1.7-4.5,1.1-1.1,2.6-1.7,4.5-1.7s3.4.6,4.5,1.7,1.7,2.6,1.7,4.5v.6c0,.2-.1.4-.4.4h-1.9c-.2.1-.4,0-.4-.2v-.9c0-1.1-.3-2.1-1-2.8s-1.5-1.1-2.6-1.1-1.9.3-2.6,1.1c-.7.7-1,1.6-1,2.8v13.8c0,1.1.3,2.1,1,2.8.7.7,1.5,1.1,2.6,1.1s2-.3,2.6-1.1c.6-.7,1-1.6,1-2.8v-.9c0-.2.1-.4.4-.4h1.9c.2.1.4.2.4.5v.6c0,1.9-.6,3.4-1.7,4.6s-2.6,1.7-4.5,1.7-3.4-.6-4.5-1.7h0Z"/>
          <path class="st4" d="M297.7,118.4c-1-1-1.5-2.3-1.5-4v-7.8c0-1.6.5-3,1.6-4s2.4-1.6,4.1-1.6,3.1.5,4.2,1.6,1.6,2.4,1.6,4v7.8c0,1.7-.5,3-1.6,4-1,1-2.4,1.5-4.2,1.5s-3.1-.5-4.1-1.5h0ZM304.1,116.7c.6-.6.9-1.5.9-2.5v-7.5c0-1-.3-1.9-.9-2.5-.6-.6-1.3-1-2.3-1s-1.7.3-2.2,1-.9,1.5-.9,2.5v7.5c0,1,.3,1.9.9,2.5s1.3.9,2.2.9,1.7-.3,2.3-.9Z"/>
          <path class="st4" d="M328.7,102.6c.8,1.1,1.2,2.5,1.2,4.4v12.2c0,.2-.1.4-.4.4h-1.8c-.2,0-.4-.1-.4-.4v-12c0-1.2-.3-2.2-.8-2.9-.5-.7-1.2-1.1-2-1.1s-1.6.3-2.2,1.1c-.5.7-.8,1.7-.8,2.9v12.1c0,.2-.1.4-.4.4h-1.9c-.2,0-.4-.1-.4-.4v-12c0-1.2-.3-2.2-.8-2.9-.5-.7-1.2-1.1-2-1.1s-1.6.3-2.2,1.1c-.5.7-.8,1.7-.8,2.9v12.1c0,.2-.1.4-.4.4h-1.8c-.2,0-.4-.1-.4-.4v-17.6c0-.2.1-.4.4-.4h1.8c.2,0,.4.1.4.4v1.1s0,0,0,0c0,0,0,0,.1,0,.5-.6,1-1.1,1.6-1.3s1.3-.4,2-.4,1.7.2,2.4.7c.7.4,1.2,1.1,1.6,1.9,0,0,0,0,.1,0s0,0,.1-.1c.4-.9,1-1.5,1.8-1.9s1.5-.6,2.4-.6c1.5,0,2.6.5,3.4,1.6h0Z"/>
          <path class="st4" d="M343.3,102.5c.9,1,1.4,2.4,1.4,4v7.8c0,1.7-.5,3-1.4,4-.9,1-2.1,1.5-3.7,1.5s-1.3-.1-1.9-.4-1.1-.7-1.6-1.2c0,0,0,0-.1,0s0,0,0,.1v7.9c0,.2-.1.4-.4.4h-1.9c-.2,0-.4-.1-.4-.4v-24.6c0-.2.1-.4.4-.4h1.9c.2,0,.4.1.4.4v.8s0,0,0,0c0,0,.1,0,.1,0,.4-.5,1-.9,1.6-1.1s1.2-.4,1.9-.4c1.5,0,2.7.5,3.7,1.5h0ZM341.2,104.2c-.6-.6-1.3-1-2.3-1s-1.6.3-2.2,1-.9,1.5-.9,2.5v7.5c0,1,.3,1.9.9,2.5s1.3,1,2.2,1,1.7-.3,2.3-1,.9-1.5.9-2.5v-7.5c0-1-.3-1.9-.9-2.5Z"/>
          <path class="st4" d="M356.6,101.3h1.9c.2,0,.4.1.4.4v17.6c0,.2-.1.4-.4.4h-1.9c-.2,0-.4-.1-.4-.4v-1.2c0,0,0-.1,0-.1s0,0-.1,0c-.8,1.3-2,1.9-3.6,1.9s-2.6-.4-3.5-1.3-1.3-2.2-1.3-4v-12.9c0-.2.1-.4.4-.4h1.9c.2,0,.4.1.4.4v12.3c0,1.2.2,2.1.7,2.7s1.2.9,2.1.9,1.7-.3,2.3-1.1c.5-.7.8-1.7.8-2.9v-12.1c0-.2.1-.4.4-.4h0Z"/>
          <path class="st4" d="M368.9,103.2h-2.8c-.1,0-.1,0-.1.2v11.1c0,1.1.2,1.9.6,2.3.4.4,1,.6,1.8.6h.4c.2,0,.4.1.4.4v1.6c0,.2-.1.4-.4.4h-.9c-1.4,0-2.5-.3-3.2-.9s-1.1-1.8-1.1-3.5v-11.8c0,0,0-.2-.1-.2h-1.4c-.2,0-.4-.1-.4-.4v-1.2c0-.2.1-.4.4-.4h1.4c.1,0,.1,0,.1-.2v-4.1c0-.2.1-.4.4-.4h1.8c.2,0,.4.1.4.4v4.1c0,0,0,.2.1.2h2.8c.2,0,.4.1.4.4v1.2c0,.2-.1.4-.4.4h0Z"/>
          <path class="st4" d="M382.4,111.4h-8.2c-.1,0-.1,0-.1.2v2.6c0,1,.3,1.8.9,2.5s1.3,1,2.2,1,1.4-.2,2-.7.9-1.1,1.1-1.8c0-.2.2-.3.4-.3h1.8c.1,0,.2.1.2.2s.1.2,0,.3c-.2,1.4-.8,2.6-1.8,3.4s-2.2,1.2-3.8,1.2-3.1-.5-4.1-1.5c-1-1-1.5-2.3-1.5-4v-7.8c0-1.6.5-3,1.5-4s2.4-1.5,4.1-1.5,3.1.5,4.1,1.5c1,1,1.5,2.4,1.5,4v4.5c0,.2-.1.4-.4.4h0ZM374.9,104.2c-.6.6-.9,1.5-.9,2.5v2.4c0,0,0,.2.1.2h5.9c.1,0,.1,0,.1-.2v-2.4c0-1-.3-1.9-.9-2.5s-1.3-1-2.3-1-1.7.3-2.2,1h0Z"/>
          <path class="st4" d="M393.5,101.5c.2,0,.2.2.2.5l-.4,1.9c0,.2-.2.3-.4.2-.3-.2-.6-.2-1.1-.2s-.3,0-.4,0c-.9,0-1.6.5-2.1,1.4s-.8,1.9-.8,3.1v10.9c0,.2-.1.4-.4.4h-1.9c-.2,0-.4-.1-.4-.4v-17.6c0-.2.1-.4.4-.4h1.9c.2,0,.4.1.4.4v2.2c0,0,0,.1,0,.1s0,0,.1,0c.7-1.8,1.9-2.8,3.4-2.8s1.1.1,1.6.4h0Z"/>
          <path class="st4" d="M414.2,119.3l-.9-4.5s0,0,0-.1,0,0-.1,0h-6.5s0,0-.1,0c0,0,0,0,0,.1l-.9,4.5c0,.2-.2.3-.4.3h-1.9c-.1,0-.2,0-.3-.1s0-.2,0-.3l5.4-24.6c0-.2.2-.3.4-.3h2.2c.2,0,.4.1.4.3l5.5,24.6h0c0,.3-.1.4-.3.4h-1.9c-.2,0-.4-.1-.4-.3h0ZM407,112.6h5.7c0,0,.1,0,.1-.2l-2.9-14.2c0,0,0-.1,0-.1s0,0,0,.1l-2.9,14.2c0,0,0,.2.1.2h0Z"/>
          <path class="st4" d="M420.2,118.5c-1-.9-1.5-2-1.5-3.4v-.2c0-.2.1-.4.4-.4h1.7c.2,0,.4.1.4.4v.2c0,.8.3,1.4.9,2s1.3.8,2.2.8,1.6-.3,2.1-.8.8-1.2.8-2-.2-1.2-.5-1.6-.7-.8-1.2-1-1.1-.6-2-.9c-.9-.4-1.7-.8-2.3-1.1s-1.1-.9-1.6-1.6c-.5-.7-.7-1.6-.7-2.6,0-1.5.5-2.8,1.4-3.7,1-.9,2.2-1.3,3.9-1.3s3,.5,3.9,1.4c1,.9,1.5,2.1,1.5,3.7h0c0,.3-.1.5-.4.5h-1.7c-.2,0-.4-.1-.4-.4v-.2c0-.8-.3-1.5-.8-2s-1.2-.8-2.1-.8-1.6.3-2.1.8-.8,1.2-.8,2,.2,1.1.5,1.5.7.7,1.2,1c.5.2,1.1.6,1.9.9,1,.4,1.8.8,2.5,1.2.6.4,1.2.9,1.7,1.6.5.7.7,1.6.7,2.6,0,1.5-.5,2.7-1.5,3.6-1,.9-2.3,1.3-4,1.3s-3-.4-4-1.3h0Z"/>
          <path class="st4" d="M433.6,118.5c-1-.9-1.5-2-1.5-3.4v-.2c0-.2.1-.4.4-.4h1.7c.2,0,.4.1.4.4v.2c0,.8.3,1.4.9,2s1.3.8,2.2.8,1.6-.3,2.1-.8.8-1.2.8-2-.2-1.2-.5-1.6-.7-.8-1.2-1-1.1-.6-2-.9c-.9-.4-1.7-.8-2.3-1.1s-1.1-.9-1.6-1.6c-.5-.7-.7-1.6-.7-2.6,0-1.5.5-2.8,1.4-3.7,1-.9,2.2-1.3,3.9-1.3s3,.5,3.9,1.4c1,.9,1.5,2.1,1.5,3.7h0c0,.3-.1.5-.4.5h-1.7c-.2,0-.4-.1-.4-.4v-.2c0-.8-.3-1.5-.8-2s-1.2-.8-2.1-.8-1.6.3-2.1.8-.8,1.2-.8,2,.2,1.1.5,1.5.7.7,1.2,1c.5.2,1.1.6,1.9.9,1,.4,1.8.8,2.5,1.2.6.4,1.2.9,1.7,1.6.5.7.7,1.6.7,2.6,0,1.5-.5,2.7-1.5,3.6-1,.9-2.3,1.3-4,1.3s-3-.4-4-1.3h0Z"/>
          <path class="st4" d="M445.8,97.4c-.4-.4-.6-.9-.6-1.4s.2-1.1.6-1.5c.4-.4.9-.6,1.5-.6s1.1.2,1.4.6c.4.4.6.9.6,1.5s-.2,1.1-.6,1.4c-.4.4-.9.6-1.4.6s-1.1-.2-1.5-.6ZM446,119.2v-17.6c0-.2.1-.4.4-.4h1.9c.2,0,.4.1.4.4v17.6c0,.2-.1.4-.4.4h-1.9c-.2,0-.4-.1-.4-.4Z"/>
          <path class="st4" d="M453.2,118.5c-1-.9-1.5-2-1.5-3.4v-.2c0-.2.1-.4.4-.4h1.7c.2,0,.4.1.4.4v.2c0,.8.3,1.4.9,2s1.3.8,2.2.8,1.6-.3,2.1-.8.8-1.2.8-2-.2-1.2-.5-1.6-.7-.8-1.2-1-1.1-.6-2-.9c-.9-.4-1.7-.8-2.3-1.1s-1.1-.9-1.6-1.6c-.5-.7-.7-1.6-.7-2.6,0-1.5.5-2.8,1.4-3.7,1-.9,2.2-1.3,3.9-1.3s3,.5,3.9,1.4c1,.9,1.5,2.1,1.5,3.7h0c0,.3-.1.5-.4.5h-1.7c-.2,0-.4-.1-.4-.4v-.2c0-.8-.3-1.5-.8-2s-1.2-.8-2.1-.8-1.6.3-2.1.8-.8,1.2-.8,2,.2,1.1.5,1.5.7.7,1.2,1c.5.2,1.1.6,1.9.9,1,.4,1.8.8,2.5,1.2.6.4,1.2.9,1.7,1.6.5.7.7,1.6.7,2.6,0,1.5-.5,2.7-1.5,3.6-1,.9-2.3,1.3-4,1.3s-3-.4-4-1.3h0Z"/>
          <path class="st4" d="M471.8,103.2h-2.8c-.1,0-.1,0-.1.2v11.1c0,1.1.2,1.9.6,2.3.4.4,1,.6,1.8.6h.4c.2,0,.4.1.4.4v1.6c0,.2-.1.4-.4.4h-.9c-1.4,0-2.5-.3-3.2-.9s-1.1-1.8-1.1-3.5v-11.8c0,0,0-.2-.1-.2h-1.4c-.2,0-.4-.1-.4-.4v-1.2c0-.2.1-.4.4-.4h1.4c.1,0,.1,0,.1-.2v-4.1c0-.2.1-.4.4-.4h1.8c.2,0,.4.1.4.4v4.1c0,0,0,.2.1.2h2.8c.2,0,.4.1.4.4v1.2c0,.2-.1.4-.4.4h0Z"/>
          <path class="st4" d="M485.3,111.4h-8.2c-.1,0-.1,0-.1.2v2.6c0,1,.3,1.8.9,2.5s1.3,1,2.2,1,1.4-.2,2-.7.9-1.1,1.1-1.8c0-.2.2-.3.4-.3h1.8c.1,0,.2.1.2.2s.1.2,0,.3c-.2,1.4-.8,2.6-1.8,3.4s-2.2,1.2-3.8,1.2-3.1-.5-4.1-1.5c-1-1-1.5-2.3-1.5-4v-7.8c0-1.6.5-3,1.5-4s2.4-1.5,4.1-1.5,3.1.5,4.1,1.5c1,1,1.5,2.4,1.5,4v4.5c0,.2-.1.4-.4.4h0ZM477.7,104.2c-.6.6-.9,1.5-.9,2.5v2.4c0,0,0,.2.1.2h5.9c.1,0,.1,0,.1-.2v-2.4c0-1-.3-1.9-.9-2.5s-1.3-1-2.3-1-1.7.3-2.2,1h0Z"/>
          <path class="st4" d="M497.5,94.3h1.9c.2,0,.4.1.4.4v24.6c0,.2-.1.4-.4.4h-1.9c-.2,0-.4-.1-.4-.4v-.8s0,0,0-.1,0,0-.1,0c-.9,1-2.1,1.5-3.5,1.5s-2.8-.5-3.7-1.5c-.9-1-1.4-2.4-1.4-4v-7.8c0-1.7.5-3,1.4-4,.9-1,2.1-1.5,3.7-1.5s2.6.5,3.5,1.6c0,0,0,0,.1,0s0,0,0-.1v-7.9c0-.2.1-.4.4-.4h0ZM496.3,116.7c.6-.6.9-1.5.9-2.5v-7.5c0-1-.3-1.9-.9-2.5s-1.3-1-2.2-1-1.7.3-2.3,1-.9,1.5-.9,2.5v7.5c0,1,.3,1.8.9,2.5s1.3,1,2.3,1,1.6-.3,2.2-1Z"/>
          <path class="st4" d="M511.8,119.2v-24.6c0-.2.1-.4.4-.4h1.8c.2,0,.4.1.4.4v24.6c0,.2-.1.4-.4.4h-1.8c-.2,0-.4-.1-.4-.4h0Z"/>
          <path class="st4" d="M528,102.6c.8,1,1.2,2.4,1.2,4.2v12.5c0,.2-.1.4-.4.4h-1.8c-.2,0-.4-.1-.4-.4v-12.2c0-1.2-.3-2.1-.8-2.8s-1.2-1-2.2-1-1.7.3-2.3,1.1c-.5.7-.8,1.7-.8,2.9v12.1c0,.2-.1.4-.4.4h-1.8c-.2,0-.4-.1-.4-.4v-17.6c0-.2.1-.4.4-.4h1.8c.2,0,.4.1.4.4v1.2s0,0,0,.1,0,0,.1,0c.4-.6,1-1.1,1.7-1.4.7-.3,1.4-.4,2.1-.4,1.5,0,2.6.5,3.4,1.5h0Z"/>
          <path class="st4" d="M538.8,103.2h-2.8c0,0-.2,0-.2.2v11.1c0,1.1.2,1.9.6,2.3.4.4,1,.6,1.8.6h.4c.2,0,.4.1.4.4v1.6c0,.2-.1.4-.4.4h-.9c-1.4,0-2.5-.3-3.2-.9s-1.1-1.8-1.1-3.5v-11.8c0,0,0-.2-.2-.2h-1.4c-.2,0-.4-.1-.4-.4v-1.2c0-.2.1-.4.4-.4h1.4c0,0,.2,0,.2-.2v-4.1c0-.2.1-.4.4-.4h1.8c.2,0,.4.1.4.4v4.1c0,0,0,.2.2.2h2.8c.2,0,.4.1.4.4v1.2c0,.2-.1.4-.4.4h0Z"/>
          <path class="st4" d="M552.3,111.4h-8.2c0,0-.2,0-.2.2v2.6c0,1,.3,1.8.8,2.5s1.3,1,2.2,1,1.4-.2,2-.7.9-1.1,1.1-1.8c0-.2.2-.3.4-.3h1.8c0,0,.2.1.2.2s0,.2,0,.3c-.2,1.4-.8,2.6-1.8,3.4s-2.2,1.2-3.8,1.2-3.1-.5-4.1-1.5c-1-1-1.5-2.3-1.5-4v-7.8c0-1.6.5-3,1.5-4s2.4-1.5,4.1-1.5,3.1.5,4.1,1.5c1,1,1.5,2.4,1.5,4v4.5c0,.2-.1.4-.4.4h0ZM544.8,104.2c-.6.6-.8,1.5-.8,2.5v2.4c0,0,0,.2.2.2h5.9c0,0,.2,0,.2-.2v-2.4c0-1-.3-1.9-.9-2.5s-1.3-1-2.3-1-1.7.3-2.2,1h0Z"/>
          <path class="st4" d="M563.4,101.5c.2,0,.2.2.2.5l-.4,1.9c0,.2-.2.3-.4.2-.3-.2-.7-.2-1.1-.2s-.3,0-.4,0c-.9,0-1.6.5-2.1,1.4s-.8,1.9-.8,3.1v10.9c0,.2-.1.4-.4.4h-1.8c-.2,0-.4-.1-.4-.4v-17.6c0-.2.1-.4.4-.4h1.8c.2,0,.4.1.4.4v2.2c0,0,0,.1,0,.1s0,0,.1,0c.7-1.8,1.8-2.8,3.4-2.8s1.1.1,1.6.4h0Z"/>
          <path class="st4" d="M570,119.3l-4.5-17.6v-.2c0-.2,0-.2.3-.2h2.1c.2,0,.3.1.4.3l3.1,13.7c0,0,0,.1,0,.1s0,0,0-.1l3.1-13.7c0-.2.2-.3.4-.3h2.1c.1,0,.2,0,.3.2s0,.2,0,.3l-4.5,17.6c0,.2-.2.3-.4.3h-2.2c-.2,0-.3-.1-.4-.3h0,0Z"/>
          <path class="st4" d="M590.5,111.4h-8.2c0,0-.2,0-.2.2v2.6c0,1,.3,1.8.8,2.5s1.3,1,2.2,1,1.4-.2,2-.7.9-1.1,1.1-1.8c0-.2.2-.3.4-.3h1.8c0,0,.2.1.2.2s0,.2,0,.3c-.2,1.4-.8,2.6-1.8,3.4s-2.2,1.2-3.8,1.2-3.1-.5-4.1-1.5c-1-1-1.5-2.3-1.5-4v-7.8c0-1.6.5-3,1.5-4s2.4-1.5,4.1-1.5,3.1.5,4.1,1.5c1,1,1.5,2.4,1.5,4v4.5c0,.2-.1.4-.4.4h0ZM582.9,104.2c-.6.6-.8,1.5-.8,2.5v2.4c0,0,0,.2.2.2h5.9c0,0,.2,0,.2-.2v-2.4c0-1-.3-1.9-.9-2.5s-1.3-1-2.3-1-1.7.3-2.2,1h0Z"/>
          <path class="st4" d="M603.8,102.6c.8,1,1.2,2.4,1.2,4.2v12.5c0,.2-.1.4-.4.4h-1.8c-.2,0-.4-.1-.4-.4v-12.2c0-1.2-.3-2.1-.8-2.8s-1.2-1-2.2-1-1.7.3-2.3,1.1c-.5.7-.8,1.7-.8,2.9v12.1c0,.2-.1.4-.4.4h-1.8c-.2,0-.4-.1-.4-.4v-17.6c0-.2.1-.4.4-.4h1.8c.2,0,.4.1.4.4v1.2s0,0,0,.1,0,0,.1,0c.4-.6,1-1.1,1.7-1.4.7-.3,1.4-.4,2.1-.4,1.5,0,2.6.5,3.4,1.5h0Z"/>
          <path class="st4" d="M614.6,103.2h-2.8c0,0-.2,0-.2.2v11.1c0,1.1.2,1.9.6,2.3.4.4,1,.6,1.8.6h.4c.2,0,.4.1.4.4v1.6c0,.2-.1.4-.4.4h-.9c-1.4,0-2.5-.3-3.2-.9s-1.1-1.8-1.1-3.5v-11.8c0,0,0-.2-.2-.2h-1.4c-.2,0-.4-.1-.4-.4v-1.2c0-.2.1-.4.4-.4h1.4c0,0,.2,0,.2-.2v-4.1c0-.2.1-.4.4-.4h1.8c.2,0,.4.1.4.4v4.1c0,0,0,.2.2.2h2.8c.2,0,.4.1.4.4v1.2c0,.2-.1.4-.4.4h0Z"/>
          <path class="st4" d="M617.6,97.4c-.4-.4-.6-.9-.6-1.4s.2-1.1.6-1.5c.4-.4.9-.6,1.5-.6s1.1.2,1.4.6c.4.4.6.9.6,1.5s-.2,1.1-.6,1.4c-.4.4-.8.6-1.4.6s-1.1-.2-1.5-.6ZM617.8,119.2v-17.6c0-.2.1-.4.4-.4h1.8c.2,0,.4.1.4.4v17.6c0,.2-.1.4-.4.4h-1.8c-.2,0-.4-.1-.4-.4Z"/>
          <path class="st4" d="M625.1,118.4c-1-1-1.5-2.3-1.5-4v-7.8c0-1.6.5-3,1.6-4s2.4-1.6,4.1-1.6,3.1.5,4.2,1.6,1.6,2.4,1.6,4v7.8c0,1.7-.5,3-1.6,4-1,1-2.4,1.5-4.2,1.5s-3.1-.5-4.1-1.5h0ZM631.5,116.7c.6-.6.9-1.5.9-2.5v-7.5c0-1-.3-1.9-.9-2.5s-1.3-1-2.3-1-1.7.3-2.2,1-.9,1.5-.9,2.5v7.5c0,1,.3,1.9.9,2.5s1.3.9,2.2.9,1.7-.3,2.3-.9Z"/>
          <path class="st4" d="M648.1,102.6c.8,1,1.2,2.4,1.2,4.2v12.5c0,.2-.1.4-.4.4h-1.8c-.2,0-.4-.1-.4-.4v-12.2c0-1.2-.3-2.1-.8-2.8s-1.2-1-2.2-1-1.7.3-2.3,1.1c-.5.7-.8,1.7-.8,2.9v12.1c0,.2-.1.4-.4.4h-1.8c-.2,0-.4-.1-.4-.4v-17.6c0-.2.1-.4.4-.4h1.8c.2,0,.4.1.4.4v1.2s0,0,0,.1,0,0,.1,0c.4-.6,1-1.1,1.7-1.4.7-.3,1.4-.4,2.1-.4,1.5,0,2.6.5,3.4,1.5h0Z"/>
          <path class="st4" d="M661.8,118.1c-1.1-1.2-1.7-2.7-1.7-4.6v-.8c0-.2.1-.4.4-.4h1.8c.2,0,.4.1.4.4v.7c0,1.3.3,2.3,1,3.1s1.5,1.2,2.5,1.2,1.9-.4,2.5-1.1,1-1.7,1-3-.2-1.5-.5-2.1c-.3-.6-.8-1.1-1.3-1.6s-1.4-1.1-2.6-2.1c-1.2-.9-2.2-1.7-2.9-2.3s-1.3-1.4-1.7-2.3c-.5-.9-.7-1.9-.7-3.2,0-1.9.5-3.4,1.6-4.5s2.5-1.7,4.2-1.7,3.3.6,4.4,1.8,1.7,2.8,1.7,4.8v.9c0,.2-.1.4-.4.4h-1.8c-.2,0-.4-.1-.4-.4v-.9c0-1.3-.3-2.3-1-3.1s-1.5-1.2-2.5-1.2-1.8.3-2.4,1-.9,1.7-.9,2.9.1,1.4.4,2c.3.6.7,1.1,1.2,1.6.5.5,1.4,1.2,2.5,2,1.5,1.1,2.5,1.9,3.2,2.6.7.7,1.3,1.4,1.7,2.2.4.8.6,1.7.6,2.8,0,2-.6,3.6-1.7,4.8s-2.6,1.8-4.4,1.8-3.2-.6-4.3-1.8h0Z"/>
          <path class="st4" d="M676.5,118.4c-1-1-1.5-2.3-1.5-4v-7.8c0-1.6.5-3,1.6-4s2.4-1.6,4.1-1.6,3.1.5,4.2,1.6,1.6,2.4,1.6,4v7.8c0,1.7-.5,3-1.6,4-1,1-2.4,1.5-4.2,1.5s-3.1-.5-4.1-1.5h0ZM683,116.7c.6-.6.9-1.5.9-2.5v-7.5c0-1-.3-1.9-.9-2.5s-1.3-1-2.3-1-1.7.3-2.2,1-.9,1.5-.9,2.5v7.5c0,1,.3,1.9.9,2.5s1.3.9,2.2.9,1.7-.3,2.3-.9Z"/>
          <path class="st4" d="M690.8,118.4c-1-1-1.5-2.3-1.5-4v-7.8c0-1.6.5-3,1.6-4s2.4-1.5,4.1-1.5,2.1.2,3,.7c.9.5,1.5,1.1,2,1.8.5.8.7,1.6.7,2.5v.4c0,.2-.1.4-.4.4h-1.8c-.2,0-.4,0-.4-.3v-.2c0-.8-.3-1.5-.9-2.1s-1.3-.9-2.3-.9-1.7.3-2.2,1-.8,1.5-.8,2.5v7.5c0,1,.3,1.9.8,2.5.6.6,1.3,1,2.2,1s1.7-.3,2.3-.9.9-1.3.9-2.1v-.2c0-.2.1-.4.4-.4h1.8c.2,0,.4.2.4.4v.4c0,1.4-.5,2.7-1.6,3.6s-2.4,1.4-4.1,1.4-3.1-.5-4.1-1.5h0Z"/>
          <path class="st4" d="M703.5,97.4c-.4-.4-.6-.9-.6-1.4s.2-1.1.6-1.5c.4-.4.9-.6,1.5-.6s1.1.2,1.4.6c.4.4.6.9.6,1.5s-.2,1.1-.6,1.4c-.4.4-.8.6-1.4.6s-1.1-.2-1.5-.6ZM703.7,119.2v-17.6c0-.2.1-.4.4-.4h1.8c.2,0,.4.1.4.4v17.6c0,.2-.1.4-.4.4h-1.8c-.2,0-.4-.1-.4-.4Z"/>
          <path class="st4" d="M720.5,111.4h-8.2c0,0-.2,0-.2.2v2.6c0,1,.3,1.8.8,2.5.6.6,1.3,1,2.2,1s1.4-.2,2-.7.9-1.1,1.1-1.8c0-.2.2-.3.4-.3h1.8c0,0,.2.1.2.2s0,.2,0,.3c-.2,1.4-.8,2.6-1.8,3.4s-2.2,1.2-3.8,1.2-3.1-.5-4.1-1.5-1.5-2.3-1.5-4v-7.8c0-1.6.5-3,1.5-4s2.4-1.5,4.1-1.5,3.1.5,4.1,1.5,1.5,2.4,1.5,4v4.5c0,.2-.1.4-.4.4h0ZM712.9,104.2c-.6.6-.8,1.5-.8,2.5v2.4c0,0,0,.2.2.2h5.9c0,0,.2,0,.2-.2v-2.4c0-1-.3-1.9-.9-2.5s-1.3-1-2.3-1-1.7.3-2.2,1h0Z"/>
          <path class="st4" d="M730.2,103.2h-2.8c0,0-.2,0-.2.2v11.1c0,1.1.2,1.9.6,2.3.4.4,1,.6,1.8.6h.4c.2,0,.4.1.4.4v1.6c0,.2-.1.4-.4.4h-.9c-1.4,0-2.5-.3-3.2-.9s-1.1-1.8-1.1-3.5v-11.8c0,0,0-.2-.2-.2h-1.4c-.2,0-.4-.1-.4-.4v-1.2c0-.2.1-.4.4-.4h1.4c0,0,.2,0,.2-.2v-4.1c0-.2.1-.4.4-.4h1.8c.2,0,.4.1.4.4v4.1c0,0,0,.2.2.2h2.8c.2,0,.4.1.4.4v1.2c0,.2-.1.4-.4.4h0Z"/>
          <path class="st4" d="M733.4,126.8c0,0,0-.2,0-.2v-1.4c0-.2.1-.4.4-.4.8,0,1.3-.2,1.8-.4.4-.3.8-.7,1-1.4s.5-1.7.8-3.1c0,0,0,0,0-.1s0,0,0,0l-4.6-17.8h0c0-.3.1-.4.4-.4h2c.2,0,.4.1.4.3l3.2,14.2c0,0,0,.1,0,.1s0,0,0-.1l3.2-14.2c0-.2.2-.3.4-.3h2c.1,0,.2,0,.3.2s0,.2,0,.3l-5,19.5c-.4,1.6-.9,2.8-1.3,3.6-.4.8-1,1.3-1.7,1.6-.7.3-1.6.4-2.9.4h-.2s0,0-.2-.1h0Z"/>
        </g>
        <rect class="st2" x="237.8" width="1.8" height="169.5"/>
      </g>
    </g>
  </g>
</svg>